<svg width="21" height="21" viewBox="0 0 21 21" fill="none" xmlns="http://www.w3.org/2000/svg">
<path d="M19.2019 9.1875L17.0625 3.9375H18.375V2.625H11.8125V1.3125H10.5V2.625H3.9375V3.9375H5.25L3.12375 9.1875H2.625V10.5H2.82188C3.02663 11.1536 3.44269 11.7206 4.00312 12.1144C4.55654 12.5157 5.22265 12.7318 5.90625 12.7318C6.58985 12.7318 7.25596 12.5157 7.80937 12.1144C8.37029 11.7182 8.789 11.1523 9.00375 10.5H9.1875V9.1875H8.59688L6.405 3.9375H10.5V14.4375H7.875L7.36313 14.6737L4.73812 17.9681L5.25 19.0312H17.0625L17.5744 17.9681L14.9494 14.6737L14.4375 14.4375H11.8125V3.9375H15.9206L13.7288 9.1875H13.125V10.5H13.3219C13.5365 11.1503 13.9508 11.7163 14.5058 12.1175C15.0607 12.5187 15.728 12.7346 16.4128 12.7346C17.0976 12.7346 17.7649 12.5187 18.3199 12.1175C18.8748 11.7163 19.2891 11.1503 19.5037 10.5H19.6875V9.1875H19.2019ZM6.85125 11.1694C6.5618 11.3296 6.23705 11.4153 5.90625 11.4187C5.57936 11.417 5.25843 11.3312 4.97438 11.1694C4.68472 11.0106 4.44068 10.7801 4.26562 10.5H7.54688C7.3733 10.7767 7.13443 11.0066 6.85125 11.1694ZM7.17937 9.1875H4.55438L5.86687 6.0375L7.17937 9.1875ZM14.1225 15.75L15.75 17.7188H6.5625L8.19 15.75H14.1225ZM16.4587 6.06375L17.7712 9.21375H15.1462L16.4587 6.06375ZM17.3513 11.1956C17.0643 11.3619 16.7379 11.4481 16.4062 11.445C16.0785 11.4497 15.756 11.3633 15.4744 11.1956C15.1843 11.0259 14.9408 10.7869 14.7656 10.5H18.0469C17.8842 10.792 17.6433 11.0329 17.3513 11.1956Z" fill="black"/>
</svg>
