<svg width="15" height="13" viewBox="0 0 15 13" fill="none" xmlns="http://www.w3.org/2000/svg">
<path d="M10.9264 12.8151C11.1255 12.8161 11.3229 12.7831 11.5071 12.7182C11.6912 12.6533 11.8583 12.5577 11.9987 12.4371L14.031 10.7008C14.1707 10.5808 14.2491 10.4184 14.2491 10.2491C14.2491 10.0799 14.1707 9.91748 14.031 9.79744L11.0314 7.23469C10.8908 7.11536 10.7008 7.04838 10.5027 7.04838C10.3045 7.04838 10.1145 7.11536 9.97396 7.23469L8.77409 8.25338C7.94337 8.06415 7.174 7.71578 6.52433 7.23469C5.96273 6.67877 5.55516 6.02178 5.33196 5.31263L6.52433 4.28753C6.664 4.16749 6.7424 4.00511 6.7424 3.83585C6.7424 3.66659 6.664 3.50421 6.52433 3.38417L3.52465 0.821421C3.38414 0.702092 3.19407 0.635114 2.99596 0.635114C2.79784 0.635114 2.60777 0.702092 2.46726 0.821421L0.442478 2.56409C0.301217 2.68405 0.189339 2.82685 0.113373 2.98415C0.0374067 3.14145 -0.00112545 3.31011 2.50224e-05 3.48027C0.06806 5.94197 1.21945 8.29136 3.22468 10.0601C5.295 11.7733 8.04495 12.7569 10.9264 12.8151ZM2.99971 2.18608L4.942 3.84546L3.9746 4.67195C3.88298 4.74527 3.81436 4.83707 3.77506 4.93894C3.73575 5.0408 3.72701 5.14947 3.74963 5.25497C4.02992 6.32515 4.62337 7.31711 5.47444 8.13806C6.43461 8.8661 7.59599 9.37323 8.84908 9.61164C8.9707 9.63336 9.09674 9.62892 9.21585 9.59873C9.33497 9.56853 9.44344 9.51353 9.53151 9.43865L10.4989 8.59295L12.4412 10.2523L10.9414 11.5337C8.45442 11.479 6.08151 10.6311 4.28957 9.15675C2.55944 7.6252 1.56407 5.59524 1.49987 3.46746L2.99971 2.18608ZM13.4986 5.76752H14.9984C15.0179 5.00574 14.8566 4.24849 14.5243 3.54139C14.192 2.8343 13.6956 2.19201 13.0649 1.65322C12.4343 1.11444 11.6825 0.690314 10.8548 0.406418C10.0272 0.122522 9.1408 -0.0152718 8.24915 0.001342V1.28271C8.945 1.26215 9.63837 1.36409 10.2862 1.58219C10.9339 1.8003 11.5223 2.12991 12.0146 2.55053C12.507 2.97115 12.8928 3.4738 13.148 4.02723C13.4033 4.58065 13.5227 5.17302 13.4986 5.76752Z" fill="black" fill-opacity="0.5"/>
<path d="M8.24918 3.84546C9.82401 3.84546 10.4989 4.42208 10.4989 5.76752H11.9988C11.9988 3.70451 10.6639 2.56409 8.24918 2.56409V3.84546Z" fill="black" fill-opacity="0.5"/>
</svg>
