<?xml version="1.0" standalone="no"?>
<!DOCTYPE svg PUBLIC "-//W3C//DTD SVG 20010904//EN"
 "http://www.w3.org/TR/2001/REC-SVG-20010904/DTD/svg10.dtd">
<svg version="1.0" xmlns="http://www.w3.org/2000/svg"
 width="1300.000000pt" height="1300.000000pt" viewBox="0 0 1300.000000 1300.000000"
 preserveAspectRatio="xMidYMid meet">
<metadata>
Created by potrace 1.14, written by Peter Selinger 2001-2017
</metadata>
<g transform="translate(0.000000,1300.000000) scale(0.100000,-0.100000)"
fill="#000000" stroke="none">
<path d="M6077 11204 c-3 -3 -17 -7 -33 -10 -62 -11 -144 -87 -160 -146 -1 -5
-2 -9 -4 -10 -15 -19 4 -168 22 -168 4 0 8 -5 8 -11 0 -19 58 -69 103 -88 44
-19 48 -27 34 -61 -4 -8 -15 -49 -26 -90 -11 -41 -24 -90 -30 -107 -5 -18 -7
-33 -4 -33 3 0 1 -6 -5 -12 -9 -12 -26 -69 -27 -93 0 -5 -4 -15 -7 -21 -4 -6
-9 -21 -12 -35 -3 -13 -7 -33 -10 -44 -3 -11 -11 -42 -18 -70 -6 -27 -14 -52
-17 -55 -4 -3 -8 -12 -9 -20 -10 -40 -10 -50 -4 -51 4 0 51 -1 105 -2 l98 -1
-1 -71 c-1 -38 -1 -74 0 -80 2 -5 2 -14 1 -18 -1 -5 -2 -36 -2 -70 -1 -67 -11
-87 -40 -87 -11 0 -19 -4 -19 -10 0 -5 -3 -9 -7 -8 -10 3 -114 -32 -128 -42
-5 -4 -19 -10 -30 -13 -11 -3 -65 -22 -120 -42 -55 -20 -107 -38 -115 -40 -8
-2 -82 -27 -165 -55 -82 -29 -157 -53 -165 -55 -8 -2 -44 -13 -80 -24 -35 -11
-66 -18 -69 -16 -2 3 -9 1 -15 -4 -11 -9 -103 -37 -147 -45 -13 -3 -24 -5 -24
-6 0 -1 -7 -3 -15 -5 -8 -2 -33 -9 -55 -15 -22 -6 -47 -13 -55 -15 -8 -2 -15
-4 -15 -5 0 -2 -13 -5 -52 -14 -12 -2 -68 -16 -125 -30 -57 -15 -112 -28 -123
-30 -11 -3 -40 -9 -65 -15 -25 -7 -56 -14 -70 -17 -14 -2 -77 -16 -140 -29
-63 -13 -128 -27 -145 -30 -16 -2 -41 -7 -55 -10 -14 -4 -44 -8 -67 -10 -23
-1 -45 -5 -50 -8 -11 -7 -47 -14 -113 -23 -25 -3 -54 -8 -65 -10 -39 -8 -71
-13 -115 -18 -25 -3 -71 -10 -104 -15 -32 -6 -61 -10 -65 -9 -3 0 -8 -1 -11
-2 -3 -1 -18 -3 -35 -5 -52 -5 -128 -15 -175 -21 -25 -3 -58 -7 -75 -8 -16 -1
-35 -5 -42 -9 -6 -4 -14 -3 -18 3 -4 6 -11 7 -17 4 -11 -7 -45 -11 -158 -19
-200 -15 -251 -17 -332 -19 -49 0 -88 -4 -88 -7 0 -3 -15 -4 -33 -2 -17 2 -36
4 -42 3 -5 0 -67 -2 -137 -3 -129 -2 -155 -10 -70 -23 26 -3 56 -9 67 -11 11
-2 34 -6 50 -9 32 -6 61 -11 100 -19 14 -3 40 -8 57 -10 18 -3 42 -7 53 -9 11
-2 43 -7 70 -10 28 -4 59 -10 70 -13 11 -4 29 -7 40 -9 71 -7 160 -21 160 -24
0 0 18 -3 40 -5 48 -5 112 -13 142 -19 12 -3 46 -7 75 -10 29 -4 63 -8 76 -11
12 -2 48 -6 80 -10 31 -3 73 -7 92 -10 19 -2 55 -6 80 -9 25 -3 70 -8 100 -11
30 -3 78 -8 105 -9 28 -2 75 -7 105 -10 82 -9 236 -19 460 -32 152 -9 826 -9
955 -1 151 11 193 14 265 22 35 4 79 8 99 10 20 2 54 6 76 10 22 3 52 8 68 11
15 2 41 6 57 9 28 5 30 3 25 -17 -36 -163 -33 -282 14 -468 18 -70 19 -75 21
-80 1 -3 3 -9 4 -15 1 -5 5 -17 8 -25 7 -16 32 -92 33 -100 2 -12 78 -236 84
-245 3 -5 7 -16 8 -22 2 -7 4 -19 6 -25 1 -7 6 -19 10 -25 5 -7 5 -13 1 -13
-3 0 1 -12 11 -26 9 -15 13 -24 7 -20 -5 3 -3 -13 5 -36 14 -41 28 -100 39
-163 2 -16 7 -41 11 -55 6 -28 8 -43 17 -155 20 -232 -2 -454 -80 -815 -3 -14
-7 -29 -8 -35 -1 -5 -5 -19 -9 -30 -3 -11 -9 -36 -11 -55 -2 -19 -14 -75 -26
-125 -12 -49 -24 -99 -26 -110 -4 -19 -8 -38 -21 -95 -3 -14 -6 -31 -6 -37 0
-7 -4 -13 -9 -13 -5 0 -7 -4 -4 -8 3 -5 0 -26 -6 -48 -5 -21 -12 -48 -13 -59
-7 -47 -28 -131 -36 -141 -5 -6 -6 -13 -4 -16 3 -3 -4 -48 -15 -99 -12 -52
-23 -102 -25 -112 -2 -10 -6 -26 -9 -35 -3 -9 -8 -33 -11 -52 -3 -19 -17 -87
-31 -150 -14 -63 -27 -125 -30 -137 -6 -34 -12 -65 -18 -93 -8 -35 -35 -170
-41 -200 -3 -14 -7 -36 -10 -50 -2 -14 -7 -38 -10 -55 -3 -16 -7 -41 -10 -55
-3 -14 -7 -36 -10 -50 -2 -14 -7 -41 -11 -60 -3 -19 -7 -46 -9 -60 -1 -14 -5
-38 -8 -55 -10 -46 -16 -85 -22 -140 -3 -27 -7 -70 -10 -95 -3 -25 -7 -77 -9
-117 -2 -39 -7 -76 -11 -82 -3 -6 -1 -11 5 -11 6 0 8 -5 4 -11 -10 -17 -11
-99 -1 -99 4 0 5 -5 1 -11 -11 -18 -11 -91 -1 -113 7 -14 6 -16 -4 -11 -8 6
-10 4 -4 -6 5 -7 10 -40 11 -74 2 -33 5 -76 8 -95 2 -19 7 -60 11 -90 3 -30 9
-62 12 -70 3 -8 7 -24 9 -35 18 -125 77 -318 139 -453 14 -30 25 -57 25 -61 0
-3 -149 -6 -331 -6 l-331 1 -24 -31 c-13 -16 -38 -48 -54 -70 -37 -49 -59 -78
-99 -130 -17 -22 -38 -49 -46 -59 -8 -11 -12 -22 -9 -25 3 -3 62 -6 132 -6 70
0 126 -3 125 -8 -2 -4 -3 -77 -3 -163 l0 -155 -92 1 c-216 3 -258 1 -258 -14
0 -8 -3 -16 -7 -18 -5 -1 -25 -28 -45 -58 -20 -30 -66 -98 -102 -150 -36 -52
-66 -97 -66 -100 0 -4 3953 -5 3983 -1 8 1 -85 145 -107 166 -6 6 -15 18 -21
27 -42 70 -93 139 -105 144 -8 3 -87 5 -175 4 l-160 -1 0 163 0 163 132 0
c113 0 130 2 123 15 -5 8 -58 80 -119 160 l-110 145 -333 1 c-203 0 -332 4
-331 10 1 5 25 65 52 134 43 108 76 207 85 252 2 7 6 24 9 38 4 14 9 36 11 50
3 14 8 36 11 50 9 43 23 137 31 225 4 33 7 146 7 250 1 165 -2 231 -17 390 -3
30 -14 108 -22 155 -2 14 -7 47 -10 74 -3 27 -8 54 -12 60 -3 6 -7 20 -8 31 0
11 -4 38 -9 60 -11 53 -14 74 -18 111 -2 17 -6 35 -10 40 -3 5 -9 30 -12 54
-13 80 -14 85 -19 110 -14 62 -17 77 -21 100 -5 27 -12 60 -21 100 -3 14 -8
41 -10 60 -3 19 -9 39 -14 45 -6 7 -8 14 -5 16 2 3 -1 25 -6 49 -6 25 -12 54
-15 65 -2 11 -15 70 -28 130 -14 61 -27 121 -30 135 -3 14 -7 34 -10 45 -2 11
-14 63 -25 115 -12 52 -23 104 -26 115 -3 11 -10 45 -16 75 -15 73 -15 73 -22
90 -6 17 -21 87 -23 110 0 8 -6 35 -13 60 -7 25 -15 54 -17 65 -3 16 -10 51
-19 95 -1 3 -4 19 -8 35 -4 17 -10 40 -12 53 -3 12 -7 32 -10 45 -8 38 -14 71
-20 102 -3 17 -7 40 -9 52 -3 11 -7 43 -11 70 -4 26 -9 59 -11 73 -23 126 -23
441 0 570 4 22 12 69 21 120 1 8 5 22 8 30 4 8 9 27 12 43 12 62 16 81 21 89
3 4 7 16 9 25 2 10 17 57 33 105 17 47 28 89 24 92 -3 3 0 6 6 6 7 0 11 3 11
8 -1 4 0 10 1 15 1 4 3 10 4 15 4 17 48 149 56 167 5 11 19 58 31 105 12 47
24 92 27 100 5 15 6 22 21 116 8 53 7 181 -2 224 -3 14 -9 40 -13 58 -3 17 -5
32 -3 32 2 0 31 -5 64 -10 33 -6 85 -12 115 -15 30 -3 71 -8 90 -10 33 -4 112
-11 240 -22 75 -6 853 -11 863 -6 4 2 60 6 125 9 64 2 144 6 177 8 98 7 238
17 275 21 19 3 64 7 100 10 36 3 81 7 100 10 19 2 64 7 100 11 36 3 79 8 95
10 17 2 55 7 85 9 30 3 62 7 70 10 8 2 44 7 80 10 36 4 74 9 85 11 11 3 40 7
65 10 25 3 56 7 70 9 14 2 41 7 60 9 62 9 105 16 125 20 11 2 42 7 68 10 27 4
59 10 70 12 12 2 38 6 57 9 19 2 46 7 60 10 14 3 41 8 60 11 19 3 55 10 79 15
24 5 46 7 49 5 2 -3 13 -1 24 5 11 6 34 12 51 13 17 1 32 7 34 12 2 5 -54 9
-135 9 -75 -1 -145 3 -154 7 -12 6 -18 5 -18 -2 0 -6 -5 -8 -10 -5 -6 4 -50 8
-98 11 -131 6 -364 21 -372 24 -3 1 -18 2 -35 2 -16 -1 -37 2 -45 5 -8 3 -35
7 -60 8 -63 4 -210 20 -285 30 -16 2 -43 6 -60 8 -97 13 -142 20 -160 24 -11
2 -33 6 -50 8 -16 1 -30 4 -30 5 0 1 -15 3 -34 6 -18 2 -59 9 -90 14 -31 6
-67 12 -81 14 -35 5 -101 16 -125 21 -11 3 -54 12 -95 20 -41 9 -88 19 -105
21 -16 3 -68 14 -115 25 -130 30 -134 31 -150 34 -8 2 -33 8 -55 14 -22 5 -55
13 -74 16 -19 3 -38 8 -43 11 -5 3 -24 8 -41 11 -18 3 -37 9 -43 14 -6 5 -13
6 -16 4 -3 -3 -18 -1 -34 6 -28 10 -40 14 -94 25 -14 3 -29 7 -35 8 -10 2 -85
24 -115 33 -8 2 -15 4 -15 3 0 -1 -13 4 -30 10 -16 7 -38 13 -48 15 -29 6
-220 65 -242 75 -11 5 -40 14 -65 21 -25 6 -49 13 -54 16 -7 5 -266 96 -301
107 -10 3 -47 17 -100 39 -16 6 -32 12 -35 12 -3 1 -21 8 -40 17 l-35 15 1
154 c1 85 2 159 3 165 1 8 30 12 89 12 132 0 122 -4 106 43 -8 22 -16 50 -18
62 -3 12 -5 22 -6 22 -1 0 -3 7 -5 15 -2 8 -15 54 -28 103 -14 48 -25 88 -25
90 -1 1 -3 9 -6 17 -2 8 -8 29 -12 45 -9 37 -11 43 -14 53 -2 4 -4 12 -5 17
-2 6 -4 12 -5 15 -1 3 -3 14 -5 24 -2 10 -10 40 -18 65 -31 96 -31 108 -1 115
53 14 118 71 130 114 3 12 10 22 15 22 5 0 6 6 3 14 -3 8 -1 16 4 20 10 6 -1
98 -16 136 -13 30 -68 90 -101 108 -34 20 -205 33 -229 18 -6 -3 -13 -3 -16 2
-5 8 -75 7 -83 -2 -3 -2 -18 0 -34 4 -16 5 -42 5 -59 0 -16 -5 -32 -5 -34 -1
-5 8 -105 6 -113 -2 -2 -3 -17 -2 -32 3 -16 4 -34 4 -41 0 -7 -4 -26 -4 -41 0
-16 5 -42 5 -59 0 -16 -5 -32 -5 -34 -1 -5 8 -105 6 -113 -2 -2 -3 -17 -1 -33
3 -16 4 -31 6 -33 4z"/>
<path d="M2121 8938 c-16 -37 -82 -150 -91 -158 -4 -3 -17 -27 -31 -53 -13
-26 -28 -57 -34 -67 -5 -11 -13 -20 -17 -20 -5 0 -8 -4 -8 -10 0 -5 -27 -54
-60 -109 -33 -55 -60 -105 -60 -111 0 -5 -4 -10 -10 -10 -5 0 -10 -5 -10 -10
0 -6 -20 -44 -45 -84 -25 -41 -45 -76 -45 -79 0 -2 -25 -45 -55 -96 -53 -87
-67 -111 -116 -198 -36 -65 -91 -157 -110 -185 -10 -14 -20 -32 -21 -40 -2 -7
-6 -15 -9 -18 -10 -9 -79 -131 -79 -141 0 -5 -4 -9 -9 -9 -5 0 -11 -8 -14 -17
-4 -10 -18 -38 -33 -63 -14 -25 -64 -109 -110 -187 -46 -78 -84 -146 -84 -152
0 -5 -4 -11 -8 -13 -5 -1 -22 -28 -39 -58 -50 -91 -77 -135 -85 -138 -4 -2 -8
-9 -8 -14 0 -14 -91 -171 -105 -180 -5 -4 -6 -8 -1 -8 5 0 2 -8 -6 -17 -8 -10
-32 -49 -54 -88 -21 -38 -43 -77 -49 -86 -5 -9 -21 -36 -34 -60 -13 -24 -27
-46 -32 -49 -4 -3 -12 -17 -18 -30 -6 -14 -22 -43 -36 -65 -14 -22 -30 -52
-36 -67 -6 -16 -15 -28 -20 -28 -5 0 -9 -7 -9 -15 0 -8 -5 -15 -12 -15 -6 0
-9 -3 -6 -6 5 -5 -56 -113 -224 -396 -40 -67 -43 -91 -15 -121 21 -22 77 -107
77 -116 0 -5 4 -11 8 -13 4 -1 44 -57 88 -123 43 -66 81 -122 84 -125 3 -3 10
-13 15 -22 6 -10 91 -139 190 -288 l180 -269 103 2 c62 1 103 -2 103 -8 1 -5
2 -57 3 -115 l2 -105 1019 0 1020 0 1 108 c1 59 4 111 7 114 4 3 51 6 106 6
l100 0 103 156 c56 86 105 158 108 161 10 9 65 95 79 123 8 16 20 31 28 34 7
3 13 9 13 14 0 8 146 235 160 249 14 14 50 70 50 79 0 5 3 11 8 13 9 4 52 65
52 73 0 4 6 13 13 20 55 62 57 74 24 130 -35 59 -65 110 -84 145 -8 14 -23 39
-33 55 -11 17 -28 46 -38 65 -10 19 -53 92 -95 163 -42 70 -73 127 -69 127 4
0 2 4 -4 8 -12 8 -84 129 -84 142 0 4 -4 10 -9 12 -5 2 -17 20 -27 40 -29 56
-126 221 -140 238 -7 8 -14 20 -15 25 -1 6 -13 27 -25 47 -13 21 -24 41 -24
45 0 3 -6 14 -14 22 -7 9 -26 41 -42 71 -16 30 -32 57 -35 60 -3 3 -20 30 -37
60 -46 82 -119 209 -148 260 -15 25 -35 59 -44 75 -9 17 -31 54 -49 83 -17 29
-31 55 -31 57 0 3 -8 14 -17 25 -10 11 -18 24 -18 28 0 4 -8 18 -17 32 -8 14
-32 54 -53 90 -38 65 -44 76 -104 180 -17 30 -36 62 -41 70 -5 8 -44 75 -87
149 -43 73 -90 154 -106 180 -15 25 -32 55 -37 66 -6 11 -19 34 -29 50 -11 17
-32 53 -47 80 -14 28 -29 52 -33 55 -4 3 -12 16 -19 30 -6 14 -16 32 -21 40
-23 36 -128 216 -134 230 -4 8 -16 29 -27 45 -11 17 -23 36 -26 43 -10 19 -18
14 -33 -20z m76 -383 c7 -11 25 -42 39 -70 14 -27 32 -57 39 -65 7 -8 26 -40
42 -70 16 -30 42 -74 56 -97 15 -24 27 -47 27 -53 0 -5 5 -10 11 -10 5 0 7 -4
4 -10 -3 -5 -1 -10 4 -10 6 0 11 -6 11 -14 0 -8 3 -16 8 -18 4 -1 15 -19 25
-38 27 -54 58 -104 69 -111 5 -3 8 -9 6 -12 -1 -3 18 -41 44 -84 112 -188 165
-279 171 -293 4 -8 16 -28 27 -45 11 -16 25 -42 31 -57 6 -16 15 -28 21 -28 5
0 7 -4 4 -9 -4 -5 -3 -11 1 -13 5 -1 19 -23 32 -48 14 -25 27 -47 30 -50 4 -3
12 -16 19 -30 7 -14 23 -43 37 -65 13 -22 27 -47 31 -55 4 -8 18 -32 32 -53
21 -35 53 -91 87 -152 6 -11 23 -39 38 -62 15 -24 27 -45 27 -48 0 -2 33 -60
73 -127 72 -120 121 -205 182 -314 17 -30 36 -59 43 -66 7 -7 12 -15 12 -20 0
-4 25 -48 55 -99 30 -50 55 -93 55 -94 0 -2 18 -33 40 -69 22 -36 40 -69 40
-74 0 -4 8 -17 18 -28 10 -10 24 -34 31 -51 7 -18 18 -33 24 -33 6 0 7 -3 3
-7 -7 -7 -3196 -12 -3196 -5 0 2 23 42 51 90 29 48 63 107 77 132 14 25 33 57
43 72 11 14 19 29 19 33 0 3 16 31 35 61 19 30 35 56 35 59 0 3 16 29 35 59
19 30 35 57 35 60 0 3 24 46 54 96 30 50 58 100 61 110 4 11 10 20 14 20 9 0
35 51 33 63 -1 4 2 7 7 7 5 0 12 8 15 18 3 9 12 26 19 37 6 11 27 47 46 80 19
33 39 63 44 66 5 3 8 8 6 10 -3 6 61 118 72 125 5 3 7 10 4 15 -4 5 -2 9 3 9
5 0 15 15 23 33 7 17 16 34 19 37 4 3 18 25 32 50 14 25 65 113 113 195 48 83
93 159 99 170 11 18 65 110 86 145 5 8 28 49 52 90 23 41 46 78 51 81 5 3 8 8
6 10 -1 2 20 42 47 89 27 47 54 93 59 102 6 10 75 130 155 267 l145 248 20
-31 c11 -17 26 -40 32 -51z"/>
<path d="M10803 8937 c-13 -18 -23 -39 -23 -45 0 -7 -4 -12 -10 -12 -5 0 -10
-4 -10 -9 0 -5 -27 -55 -60 -110 -33 -56 -60 -104 -60 -108 0 -3 -6 -14 -14
-22 -7 -9 -24 -36 -37 -61 -25 -46 -62 -107 -77 -125 -4 -5 -8 -14 -9 -18 0
-5 -20 -41 -43 -80 -23 -40 -67 -115 -98 -167 -30 -52 -75 -128 -99 -168 -23
-40 -43 -77 -43 -82 0 -6 -4 -10 -10 -10 -5 0 -10 -6 -10 -14 0 -8 -6 -21 -13
-28 -7 -7 -18 -24 -25 -38 -6 -14 -26 -47 -42 -75 -17 -27 -33 -58 -36 -67 -4
-10 -10 -18 -15 -18 -5 0 -9 -4 -9 -10 0 -5 -22 -47 -49 -92 -27 -46 -76 -130
-110 -187 -33 -57 -61 -107 -61 -111 0 -4 -9 -17 -20 -30 -11 -13 -20 -29 -20
-36 0 -7 -3 -14 -7 -16 -5 -1 -16 -19 -27 -38 -43 -80 -70 -126 -88 -149 -10
-13 -18 -30 -18 -37 0 -8 -4 -14 -10 -14 -5 0 -10 -4 -10 -9 0 -12 -123 -225
-132 -229 -5 -2 -8 -8 -8 -13 0 -4 -20 -43 -45 -85 -25 -41 -45 -79 -45 -84 0
-5 -3 -10 -7 -12 -5 -1 -21 -28 -37 -58 -16 -30 -32 -57 -36 -60 -4 -3 -13
-18 -22 -35 -16 -33 -26 -49 -123 -215 -37 -63 -77 -128 -89 -145 -11 -16 -20
-32 -20 -35 1 -3 -10 -22 -22 -42 -13 -21 -24 -40 -24 -43 0 -3 -12 -24 -27
-48 -77 -121 -83 -136 -68 -151 8 -8 15 -19 15 -25 0 -6 5 -11 10 -11 6 0 10
-7 10 -15 0 -8 5 -15 10 -15 6 0 10 -6 10 -13 0 -8 9 -22 20 -32 11 -10 17
-21 15 -25 -3 -4 2 -10 10 -14 8 -3 15 -12 15 -19 0 -8 9 -22 20 -32 11 -10
20 -24 20 -32 0 -7 5 -13 10 -13 6 0 10 -4 10 -9 0 -8 82 -134 107 -166 5 -5
27 -39 50 -75 23 -36 49 -73 57 -82 9 -10 16 -20 16 -23 0 -3 25 -41 55 -85
30 -44 55 -82 55 -86 0 -3 6 -12 13 -19 23 -27 34 -41 38 -51 2 -5 24 -40 48
-76 l44 -67 98 1 c54 0 102 -2 106 -5 4 -3 8 -53 7 -111 -1 -89 2 -106 15
-110 9 -2 468 -3 1021 -3 l1005 2 0 107 c0 59 3 110 7 113 3 3 51 6 105 7 99
0 100 0 117 29 9 15 22 34 29 41 7 7 18 25 26 40 8 15 22 37 33 47 10 11 18
23 18 25 0 6 320 488 329 496 4 3 12 17 20 33 8 15 18 27 23 27 4 0 8 7 8 15
0 8 5 15 10 15 6 0 10 6 10 13 0 7 13 28 30 47 16 19 29 38 30 42 0 9 60 98
77 116 9 10 -1 33 -49 115 -34 56 -69 116 -78 132 -10 17 -31 54 -49 83 -17
29 -31 57 -31 62 0 6 -4 10 -9 10 -5 0 -14 15 -22 33 -7 17 -16 34 -19 37 -4
3 -26 41 -50 85 -24 44 -47 82 -52 83 -4 2 -8 8 -8 12 0 5 -21 44 -46 87 -25
43 -49 85 -54 93 -18 31 -156 266 -182 310 -25 41 -36 61 -71 128 -6 12 -15
22 -19 22 -5 0 -8 4 -8 10 0 5 -32 64 -71 132 -77 131 -104 178 -126 218 -8
14 -23 39 -34 55 -10 17 -22 38 -25 48 -4 9 -11 17 -16 17 -5 0 -7 4 -3 9 3 5
0 13 -5 16 -6 4 -15 17 -20 28 -6 12 -21 40 -35 62 -14 22 -29 49 -35 60 -5
11 -21 38 -35 60 -14 22 -28 47 -32 55 -3 8 -18 33 -32 55 -14 22 -30 49 -36
60 -53 97 -79 142 -85 150 -4 6 -17 26 -28 45 -11 19 -43 76 -72 125 -29 50
-59 102 -67 117 -8 15 -19 30 -24 33 -5 4 -7 10 -4 15 3 4 -2 14 -11 21 -8 7
-22 26 -30 43 -7 17 -22 45 -33 61 -45 74 -72 121 -78 138 -3 9 -9 17 -14 17
-5 0 -9 5 -9 11 0 6 -26 54 -58 108 -32 53 -66 112 -77 133 -10 20 -26 46 -34
57 -16 20 -16 20 -38 -12z m36 -327 c8 0 28 -38 29 -54 0 -5 5 -12 10 -15 5
-3 24 -33 42 -66 18 -33 52 -91 75 -130 24 -38 52 -87 64 -107 49 -87 61 -109
83 -145 13 -21 29 -48 35 -58 7 -11 22 -38 34 -60 12 -22 29 -48 38 -59 9 -10
15 -21 15 -25 -1 -6 45 -89 78 -139 10 -15 23 -39 29 -54 6 -16 15 -28 20 -28
5 0 8 -3 7 -7 -3 -9 106 -198 128 -223 7 -8 13 -19 13 -23 0 -4 38 -72 84
-150 46 -78 95 -162 108 -187 13 -25 26 -47 29 -50 11 -9 230 -393 230 -401 0
-5 5 -9 10 -9 6 0 10 -7 10 -15 0 -8 5 -15 11 -15 5 0 7 -4 4 -10 -3 -5 -1
-10 4 -10 6 0 11 -4 11 -10 0 -5 61 -113 135 -239 74 -127 135 -235 135 -241
0 -5 5 -10 10 -10 6 0 10 -7 10 -15 0 -8 5 -15 10 -15 6 0 10 -5 10 -11 0 -7
14 -34 30 -61 17 -27 31 -54 33 -60 1 -9 -379 -12 -1590 -13 -876 0 -1593 2
-1593 6 0 3 16 31 35 63 19 32 35 60 35 62 0 2 18 33 40 69 22 36 40 70 40 75
0 6 5 10 10 10 6 0 10 7 10 15 0 8 5 15 12 15 6 0 9 3 6 6 -6 5 49 105 72 131
5 7 10 15 10 18 0 11 84 150 95 157 5 4 7 8 3 8 -4 0 15 36 42 79 27 43 46 82
43 85 -4 3 -1 6 5 6 7 0 19 17 27 37 9 21 19 40 23 43 4 3 13 16 20 30 7 14
25 46 40 71 15 25 56 96 92 158 36 62 72 124 81 139 47 79 124 210 133 229 6
13 14 23 19 23 4 0 7 5 7 10 0 6 15 35 33 66 17 31 41 72 53 92 11 21 51 89
89 152 37 63 77 133 89 155 12 22 24 42 27 45 9 8 89 151 89 159 0 4 8 16 18
27 10 10 24 34 31 52 7 17 17 32 22 32 5 0 8 3 7 8 -1 4 5 18 14 32 9 14 48
81 88 150 92 160 104 180 120 210 12 21 15 22 18 8 2 -10 7 -18 11 -18z"/>
</g>
</svg>
